<svg height="512pt" viewBox="0 0 512 512.00038" width="512pt" xmlns="http://www.w3.org/2000/svg" xmlns:xlink="http://www.w3.org/1999/xlink"><linearGradient id="a" gradientUnits="userSpaceOnUse" x1="116.4724094584" x2="485.3952722936" y1="-12.8049247178" y2="697.9363124434"><stop offset="0" stop-color="#41a4c3"/><stop offset=".4138" stop-color="#3ca1be"/><stop offset=".8912" stop-color="#2e98b1"/><stop offset="1" stop-color="#2a95ad"/></linearGradient><linearGradient id="b"><stop offset="0" stop-color="#2a95ad" stop-opacity="0"/><stop offset=".5189" stop-color="#1f879a" stop-opacity=".517647"/><stop offset="1" stop-color="#177d8e"/></linearGradient><linearGradient id="c" gradientUnits="userSpaceOnUse" x1="283.4503384616" x2="-583.9382695384" xlink:href="#b" y1="271.4408319288" y2="-216.4652600712"/><linearGradient id="d" gradientUnits="userSpaceOnUse" x1="256.0003" x2="256.0003" xlink:href="#b" y1="448.3991511028" y2="508.6691064118"/><linearGradient id="e" gradientUnits="userSpaceOnUse" x1="461.9993720446" x2="243.130521921" xlink:href="#b" y1="443.5384619554" y2="224.669712224"/><path d="m420.421875 503.234375c-109.503906 11.6875-219.339844 11.6875-328.84375 0-43.664063-4.660156-78.152344-39.148437-82.8125-82.816406-11.6875-109.503907-11.6875-219.335938 0-328.839844 4.660156-43.664063 39.148437-78.152344 82.8125-82.8125 109.503906-11.6875 219.335937-11.6875 328.839844 0 43.667969 4.660156 78.15625 39.148437 82.816406 82.8125 11.6875 109.503906 11.6875 219.335937 0 328.839844-4.660156 43.667969-39.144531 78.15625-82.8125 82.816406zm0 0" fill="url(#a)"/><path d="m475.386719 110.097656c-4.132813-38.746094-34.734375-69.351562-73.484375-73.488281-97.171875-10.367187-194.632813-10.367187-291.804688 0-38.746094 4.136719-69.351562 34.742187-73.488281 73.488281-10.367187 97.171875-10.367187 194.632813 0 291.800782 4.136719 38.75 34.742187 69.355468 73.488281 73.488281 97.171875 10.371093 194.632813 10.371093 291.800782 0 38.75-4.132813 69.355468-34.738281 73.488281-73.488281 10.371093-97.167969 10.371093-194.628907 0-291.800782zm0 0" fill="url(#c)"/><path d="m7.671875 409.804688c.351563 3.539062.714844 7.078124 1.09375 10.617187 4.660156 43.664063 39.148437 78.152344 82.816406 82.8125 109.503907 11.6875 219.335938 11.6875 328.839844 0 43.667969-4.660156 78.152344-39.148437 82.8125-82.8125.378906-3.539063.742187-7.078125 1.097656-10.617187zm0 0" fill="url(#d)"/><path d="m420.421875 503.234375c43.667969-4.660156 78.152344-39.148437 82.8125-82.816406 4.277344-40.058594 6.980469-80.160157 8.128906-120.273438l-162.734375-162.734375c-23.179687-24.675781-56.101562-40.09375-92.628906-40.09375-70.175781 0-127.066406 56.890625-127.066406 127.066406 0 55.121094 46.398437 126.578126 85.421875 164.308594l121.25 121.25c28.285156-1.460937 56.5625-3.691406 84.816406-6.707031zm0 0" fill="url(#e)"/><path d="m383.066406 224.382812c0 79.191407-90.585937 190.300782-127.066406 190.300782-32.824219 0-127.066406-111.742188-127.066406-190.300782 0-70.175781 56.890625-127.066406 127.066406-127.066406s127.066406 56.890625 127.066406 127.066406zm0 0" fill="#fff"/><path d="m256 147.554688c-5.714844 0-11.28125.601562-16.644531 1.734374 8.375 5.382813 13.925781 14.773438 13.925781 25.464844 0 16.714844-13.546875 30.261719-30.261719 30.261719-15.308593 0-27.953125-11.371094-29.96875-26.128906-8.84375 12.027343-14.042969 26.699219-14.042969 42.539062 0 40.796875 34.472657 73.871094 76.992188 73.871094s76.992188-33.074219 76.992188-73.871094c0-40.800781-34.472657-73.871093-76.992188-73.871093zm0 0" fill="#e94f3c"/></svg>