<svg height="512pt" viewBox="0 0 512 512.00038" width="512pt" xmlns="http://www.w3.org/2000/svg" xmlns:xlink="http://www.w3.org/1999/xlink"><linearGradient id="a" gradientUnits="userSpaceOnUse" x1="169.9940010834" x2="299.4934135904" y1="71.98622701" y2="349.0548448864"><stop offset="0" stop-color="#001935"/><stop offset="1" stop-color="#001121"/></linearGradient><linearGradient id="b"><stop offset="0" stop-color="#001121" stop-opacity="0"/><stop offset="1" stop-color="#000305"/></linearGradient><linearGradient id="c" gradientUnits="userSpaceOnUse" x1="364.2825237824" x2="-379.5864327114" xlink:href="#b" y1="314.0868361356" y2="-84.9521808166"/><linearGradient id="d" gradientUnits="userSpaceOnUse" x1="256.0003" x2="256.0003" xlink:href="#b" y1="443.733524" y2="495.976118997"/><linearGradient id="e" gradientUnits="userSpaceOnUse" x1="459.4043340668" x2="295.9776787464" xlink:href="#b" y1="446.1334999332" y2="282.7068446128"/><path d="m420.421875 503.234375c-109.503906 11.6875-219.339844 11.6875-328.84375 0-43.664063-4.660156-78.152344-39.148437-82.8125-82.816406-11.6875-109.503907-11.6875-219.335938 0-328.839844 4.660156-43.664063 39.148437-78.152344 82.8125-82.8125 109.503906-11.6875 219.335937-11.6875 328.839844 0 43.667969 4.660156 78.15625 39.148437 82.816406 82.8125 11.6875 109.503906 11.6875 219.335937 0 328.839844-4.660156 43.667969-39.144531 78.15625-82.8125 82.816406zm0 0" fill="url(#a)"/><path d="m475.386719 110.097656c-4.132813-38.746094-34.734375-69.351562-73.484375-73.488281-97.171875-10.367187-194.632813-10.367187-291.804688 0-38.746094 4.136719-69.351562 34.742187-73.488281 73.488281-10.367187 97.171875-10.367187 194.632813 0 291.800782 4.136719 38.75 34.742187 69.355468 73.488281 73.488281 97.171875 10.371093 194.632813 10.371093 291.800782 0 38.75-4.132813 69.355468-34.738281 73.488281-73.488281 10.371093-97.167969 10.371093-194.628907 0-291.800782zm0 0" fill="url(#c)"/><path d="m7.671875 409.804688c.351563 3.539062.714844 7.078124 1.09375 10.617187 4.660156 43.664063 39.148437 78.152344 82.816406 82.8125 109.503907 11.6875 219.335938 11.6875 328.839844 0 43.667969-4.660156 78.152344-39.148437 82.8125-82.8125.378906-3.539063.742187-7.078125 1.097656-10.617187zm0 0" fill="url(#d)"/><path d="m420.421875 503.234375c43.667969-4.660156 78.152344-39.148437 82.8125-82.816406 3.496094-32.722657 5.933594-65.476563 7.339844-98.246094l-224.859375-224.855469h-49.5625c-2.300782 35.570313-22.261719 76.644532-69.992188 89.039063v50.945312l43.371094 39.957031v54.125c0 29.796876 9.164062 50.78125 24.410156 64.242188l113.652344 113.652344c24.289062-1.441406 48.566406-3.453125 72.828125-6.042969zm0 0" fill="url(#e)"/><path d="m292.832031 414.683594c-47.730469 0-83.300781-24.554688-83.300781-83.300782v-94.082031h-43.371094v-50.945312c47.730469-12.394531 67.695313-53.46875 69.992188-89.039063h49.5625v80.777344h57.828125v59.207031h-57.828125v81.921875c0 24.554688 12.394531 33.042969 32.125 33.042969h28.003906v62.417969zm0 0" fill="#fff"/></svg>