<svg height="512pt" viewBox="0 0 512 512.00038" width="512pt" xmlns="http://www.w3.org/2000/svg" xmlns:xlink="http://www.w3.org/1999/xlink"><linearGradient id="a" gradientUnits="userSpaceOnUse" x1="169.9940010834" x2="299.4934135904" y1="71.98622701" y2="349.0548448864"><stop offset="0" stop-color="#00c3ff"/><stop offset="1" stop-color="#00b0ed"/></linearGradient><linearGradient id="b"><stop offset="0" stop-color="#00b0ed" stop-opacity="0"/><stop offset="1" stop-color="#00a2ce"/></linearGradient><linearGradient id="c" gradientUnits="userSpaceOnUse" x1="364.2825237824" x2="-379.5864327114" xlink:href="#b" y1="314.0868361356" y2="-84.9521808166"/><linearGradient id="d" gradientUnits="userSpaceOnUse" x1="256.0003" x2="256.0003" xlink:href="#b" y1="437.383215389" y2="504.4720097064"/><linearGradient id="e" gradientUnits="userSpaceOnUse" x1="455.9116894288" x2="182.0552203836" xlink:href="#b" y1="396.4182785712" y2="122.5619099182"/><linearGradient id="f" gradientUnits="userSpaceOnUse" x1="350.6883155882" x2="306.0137865882" xlink:href="#b" y1="485.7352110672" y2="364.2606490672"/><path d="m420.421875 503.234375c-109.503906 11.6875-219.339844 11.6875-328.84375 0-43.664063-4.660156-78.152344-39.148437-82.8125-82.816406-11.6875-109.503907-11.6875-219.335938 0-328.839844 4.660156-43.664063 39.148437-78.152344 82.8125-82.8125 109.503906-11.6875 219.335937-11.6875 328.839844 0 43.667969 4.660156 78.15625 39.148437 82.816406 82.8125 11.6875 109.503906 11.6875 219.335937 0 328.839844-4.660156 43.667969-39.144531 78.15625-82.8125 82.816406zm0 0" fill="url(#a)"/><path d="m475.386719 110.097656c-4.132813-38.746094-34.734375-69.351562-73.484375-73.488281-97.171875-10.367187-194.632813-10.367187-291.804688 0-38.746094 4.136719-69.351562 34.742187-73.488281 73.488281-10.367187 97.171875-10.367187 194.632813 0 291.800782 4.136719 38.75 34.742187 69.355468 73.488281 73.488281 97.171875 10.371093 194.632813 10.371093 291.800782 0 38.75-4.132813 69.355468-34.738281 73.488281-73.488281 10.371093-97.167969 10.371093-194.628907 0-291.800782zm0 0" fill="url(#c)"/><path d="m7.671875 409.804688c.351563 3.539062.714844 7.078124 1.09375 10.617187 4.660156 43.664063 39.148437 78.152344 82.816406 82.8125 109.503907 11.6875 219.335938 11.6875 328.839844 0 43.667969-4.660156 78.152344-39.148437 82.8125-82.8125.378906-3.539063.742187-7.078125 1.097656-10.617187zm0 0" fill="url(#d)"/><path d="m503.234375 420.417969c3.695313-34.609375 6.21875-69.25 7.574219-103.90625l-205.289063-205.289063h-35.074219v30.410156l-28.886718-30.410156h-35.078125v35.761719h-35.765625v35.078125l30.414062 28.886719h-30.414062v35.078125l256.253906 256.253906c40.527344-7.242188 71.84375-40.402344 76.265625-81.863281zm0 0" fill="url(#e)"/><path d="m420.421875 503.234375c43.667969-4.660156 78.152344-39.148437 82.8125-82.816406 1.015625-9.523438 1.941406-19.050781 2.78125-28.578125l-100.28125-100.214844c-9.6875-7.023438-23.234375-4.863281-30.257813 4.824219-27.691406 38.195312-72.355468 61-119.476562 61-31.160156 0-61.242188-9.980469-86.054688-27.78125l-33.71875-33.585938c-7.097656-9.363281-20.402343-11.386719-29.960937-4.457031-9.6875 7.023438-11.84375 20.570312-4.820313 30.257812 6.519532 8.992188 13.835938 17.40625 21.820313 25.136719l164.648437 164.644531c44.195313-.910156 88.375-3.71875 132.507813-8.429687zm0 0" fill="url(#f)"/><g fill="#fff"><path d="m405.734375 291.625c-9.6875-7.023438-23.234375-4.863281-30.257813 4.824219-27.691406 38.195312-72.355468 61-119.476562 61s-91.785156-22.804688-119.476562-61c-7.023438-9.6875-20.570313-11.847657-30.257813-4.824219s-11.84375 20.570312-4.820313 30.257812c17.328126 23.902344 40.292969 43.738282 66.417969 57.363282 27.007813 14.085937 57.484375 21.53125 88.136719 21.53125s61.128906-7.445313 88.136719-21.53125c26.125-13.625 49.089843-33.460938 66.421875-57.363282 7.023437-9.6875 4.863281-23.234374-4.824219-30.257812zm0 0"/><path d="m206.480469 281.792969h35.078125v-35.765625h28.886718v35.765625h35.074219v-35.765625h35.765625v-35.078125h-35.765625v-28.886719h35.765625v-35.078125h-35.765625v-35.761719h-35.074219v35.761719h-28.886718v-35.761719h-35.078125v35.761719h-35.765625v35.078125h35.765625v28.886719h-35.765625v35.078125h35.765625zm35.078125-99.730469h28.886718v28.886719h-28.886718zm0 0"/></g></svg>