<svg height="512pt" viewBox="0 0 512 512.00038" width="512pt" xmlns="http://www.w3.org/2000/svg" xmlns:xlink="http://www.w3.org/1999/xlink"><linearGradient id="a" gradientUnits="userSpaceOnUse" x1="116.4724094584" x2="485.3952722936" y1="-12.8049247178" y2="697.9363124434"><stop offset="0" stop-color="#fffcf8"/><stop offset=".1875" stop-color="#faf8f6"/><stop offset=".4041" stop-color="#eceef2"/><stop offset=".6353" stop-color="#d5dcea"/><stop offset=".875" stop-color="#b5c4df"/><stop offset="1" stop-color="#a1b5d8"/></linearGradient><linearGradient id="b"><stop offset="0" stop-color="#a1b5d8" stop-opacity="0"/><stop offset=".3094" stop-color="#90a2bd" stop-opacity=".309804"/><stop offset=".7554" stop-color="#7c8b9c" stop-opacity=".756863"/><stop offset="1" stop-color="#748290"/></linearGradient><linearGradient id="c" gradientUnits="userSpaceOnUse" x1="196.3726539866" x2="-671.0159540134" xlink:href="#b" y1="222.4596783332" y2="-265.4464136668"/><linearGradient id="d" gradientUnits="userSpaceOnUse" x1="256.0003" x2="256.0003" xlink:href="#b" y1="451.9660859688" y2="531.7738692808"/><linearGradient id="e" gradientUnits="userSpaceOnUse" x1="197.8188036276" x2="-83.2793563724" xlink:href="#b" y1="358.0916487694" y2="133.2131207694"/><linearGradient id="f" gradientUnits="userSpaceOnUse" x1="287.4111119282" x2="105.7012299282" xlink:href="#b" y1="351.6369322704" y2="268.3114062704"/><linearGradient id="g" gradientUnits="userSpaceOnUse" x1="479.310199875" x2="353.0513471918" xlink:href="#b" y1="329.851122125" y2="203.5921690496"/><linearGradient id="h" gradientUnits="userSpaceOnUse" x1="386.4053505432" x2="89.2444385432" xlink:href="#b" y1="341.0005794648" y2="195.4318894648"/><path d="m420.421875 503.234375c-109.503906 11.6875-219.339844 11.6875-328.84375 0-43.664063-4.660156-78.152344-39.148437-82.8125-82.816406-11.6875-109.503907-11.6875-219.335938 0-328.839844 4.660156-43.664063 39.148437-78.152344 82.8125-82.8125 109.503906-11.6875 219.335937-11.6875 328.839844 0 43.667969 4.660156 78.15625 39.148437 82.816406 82.8125 11.6875 109.503906 11.6875 219.335937 0 328.839844-4.660156 43.667969-39.144531 78.15625-82.8125 82.816406zm0 0" fill="url(#a)"/><path d="m475.386719 110.097656c-4.132813-38.746094-34.734375-69.351562-73.484375-73.488281-97.171875-10.367187-194.632813-10.367187-291.804688 0-38.746094 4.136719-69.351562 34.742187-73.488281 73.488281-10.367187 97.171875-10.367187 194.632813 0 291.800782 4.136719 38.75 34.742187 69.355468 73.488281 73.488281 97.171875 10.371093 194.632813 10.371093 291.800782 0 38.75-4.132813 69.355468-34.738281 73.488281-73.488281 10.371093-97.167969 10.371093-194.628907 0-291.800782zm0 0" fill="url(#c)"/><path d="m7.671875 409.804688c.351563 3.539062.714844 7.078124 1.09375 10.617187 4.660156 43.664063 39.148437 78.152344 82.816406 82.8125 109.503907 11.6875 219.335938 11.6875 328.839844 0 43.667969-4.660156 78.152344-39.148437 82.8125-82.8125.378906-3.539063.742187-7.078125 1.097656-10.617187zm0 0" fill="url(#d)"/><path d="m447.648438 496.066406c-3.652344 1.585938-7.417969 2.941406-11.304688 4.058594-5.128906 1.472656-10.460938 2.527344-15.921875 3.109375-13.832031 1.476563-27.667969 2.761719-41.511719 3.867187-45.398437 3.625-90.835937 5.230469-136.273437 4.839844l-165.453125-165.457031c-5.351563-3.355469-8.917969-9.277344-8.917969-16.0625v-148.84375c0-5.238281 2.128906-9.976563 5.554687-13.410156 3.433594-3.433594 8.179688-5.554688 13.410157-5.554688 6.777343 0 12.710937 3.566407 16.0625 8.917969 0 0 44.253906 43.609375 45.207031 44.523438 7.25-4.167969 16.644531-3.183594 22.839844 3.011718l38.039062 38.136719 64.410156 64.574219zm0 0" fill="url(#e)"/><path d="m447.648438 496.066406c-3.652344 1.585938-7.417969 2.941406-11.304688 4.058594-5.128906 1.472656-10.460938 2.527344-15.921875 3.109375-13.832031 1.476563-27.667969 2.761719-41.511719 3.867187l-160.617187-160.617187c-5.351563-3.355469-8.914063-9.277344-8.914063-16.0625v-98.515625c0-10.472656 8.492188-18.964844 18.964844-18.964844 6.773438 0 12.707031 3.5625 16.0625 8.914063l29.382812 29.386719 212.972657 212.972656c-9.796875 13.902344-23.3125 24.996094-39.113281 31.851562zm0 0" fill="url(#f)"/><path d="m510.183594 330.8125c-.332032 6.917969-.714844 13.832031-1.144532 20.75-.722656 11.785156-1.597656 23.5625-2.601562 35.339844l-96.234375-96.238282c-5.804687-3.875-9.628906-10.46875-9.628906-17.96875 0-8.082031 4.4375-15.128906 11.015625-18.824218 3.121094-1.757813 6.722656-2.761719 10.558594-2.761719 7.5 0 14.097656 3.828125 17.972656 9.628906zm0 0" fill="url(#g)"/><path d="m509.039062 351.5625c-.722656 11.785156-1.597656 23.5625-2.601562 35.339844-.941406 11.171875-2.007812 22.347656-3.203125 33.519531-1.726563 16.214844-7.578125 31.164063-16.472656 43.792969-9.796875 13.902344-23.3125 24.996094-39.113281 31.851562-3.652344 1.585938-7.417969 2.941406-11.304688 4.058594l-153.640625-153.640625c-5.339844-3.355469-8.914063-9.277344-8.914063-16.0625v-148.84375c0-5.238281 2.128907-9.976563 5.550782-13.410156 3.433594-3.433594 8.183594-5.554688 13.414062-5.554688 6.777344 0 12.710938 3.566407 16.0625 8.917969 0 0 44.261719 43.609375 45.207032 44.523438 7.246093-4.167969 16.65625-3.183594 22.847656 3.011718l34.71875 34.804688zm0 0" fill="url(#h)"/><g fill="#5ccd11"><path d="m228.34375 349.386719c-10.472656 0-18.964844-8.488281-18.964844-18.960938v-98.519531c0-10.472656 8.492188-18.964844 18.964844-18.964844s18.960938 8.492188 18.960938 18.964844v98.519531c0 10.472657-8.492188 18.960938-18.960938 18.960938zm0 0"/><path d="m182.164062 318.90625-35.796874-48.046875 24.976562-24.972656c7.40625-7.40625 7.40625-19.410157 0-26.816407s-19.410156-7.40625-26.816406 0l-38.335938 38.335938v-75.832031c0-10.472657-8.492187-18.960938-18.964844-18.960938-10.472656 0-18.960937 8.488281-18.960937 18.960938v148.851562c0 10.472657 8.488281 18.960938 18.960937 18.960938 10.472657 0 18.964844-8.488281 18.964844-18.960938v-19.386719l13.078125-13.082031 32.765625 43.984375c6.359375 8.316406 18.261719 9.90625 26.578125 3.546875 8.320313-6.359375 9.910157-18.261719 3.550781-26.582031zm0 0"/><path d="m387.691406 318.90625-35.796875-48.046875 24.976563-24.972656c7.402344-7.40625 7.402344-19.410157 0-26.816407-7.40625-7.40625-19.410156-7.40625-26.816406 0l-38.335938 38.335938v-75.832031c0-10.472657-8.488281-18.960938-18.964844-18.960938-10.472656 0-18.960937 8.488281-18.960937 18.960938v148.851562c0 10.472657 8.488281 18.960938 18.960937 18.960938 10.476563 0 18.964844-8.488281 18.964844-18.960938v-19.386719l13.078125-13.078124 32.765625 43.980468c6.359375 8.320313 18.261719 9.90625 26.582031 3.546875 8.316407-6.359375 9.90625-18.261719 3.546875-26.582031zm0 0"/><path d="m443.734375 272.695312c0 11.917969-9.664063 21.582032-21.582031 21.582032-11.917969 0-21.582032-9.664063-21.582032-21.582032 0-11.917968 9.664063-21.582031 21.582032-21.582031 11.917968 0 21.582031 9.664063 21.582031 21.582031zm0 0"/><path d="m387.691406 318.90625-35.796875-48.046875 24.976563-24.972656c7.402344-7.40625 7.402344-19.410157 0-26.816407-7.40625-7.40625-19.410156-7.40625-26.816406 0l-38.335938 38.335938v-75.832031c0-10.472657-8.488281-18.960938-18.964844-18.960938-10.472656 0-18.960937 8.488281-18.960937 18.960938v148.851562c0 10.472657 8.488281 18.960938 18.960937 18.960938 10.476563 0 18.964844-8.488281 18.964844-18.960938v-19.386719l13.078125-13.078124 32.765625 43.980468c6.359375 8.320313 18.261719 9.90625 26.582031 3.546875 8.316407-6.359375 9.90625-18.261719 3.546875-26.582031zm0 0"/></g></svg>